<?xml version="1.0" standalone="no"?>
<?xml-stylesheet href="light.css" type="text/css"?>
<!DOCTYPE svg PUBLIC "-//W3C//DTD SVG 1.1//EN" "http://www.w3.org/Graphics/SVG/1.1/DTD/svg11.dtd">
<svg xmlns="http://www.w3.org/2000/svg" version="1.1" viewBox="0 0 1000 1000"><g transform="translate(606.6301893469335,450.0293646593948) scale(0.8705505632961255)"><g><path class="link" d="M93.56026086799169,-440.16642033021253L89.57672849116135,-357.02957142681765C85.59319611433098,-273.8927225234227,77.6261313606703,-107.61902471663295,92.53800278002336,-102.77386398479261C107.44987419937642,-97.92870325295223,145.24068179174324,-254.5120795960613,164.13608558792666,-332.80376776761585L183.03148938411007,-411.0954559391704"></path><path class="link" d="M183.03148938411007,-411.0954559391704L167.69740022675208,-331.21816833300153C152.36331106939414,-251.34088072683275,121.69513275467818,-91.58630551449505,135.27377844592866,-83.74667076942106C148.85242413717916,-75.90703602434705,206.67789383439603,-219.98234174653672,235.5906286830045,-292.01999460763153L264.50336353161293,-364.0576474687264"></path><path class="link" d="M183.03148938411007,-411.0954559391704L169.15389622536074,-329.9067334453507C155.2763030666114,-248.71801095153106,127.52111674911275,-86.34056596389172,152.7517304292323,-68.00945211761102C177.98234410935186,-49.678338271330325,256.1987577870896,-175.39355556640828,295.3069646259585,-238.25116421394725L334.41517146482744,-301.1087728614862"></path><path class="link" d="M264.50336353161293,-364.0576474687264L241.1011154232464,-284.43546028536645C217.6988673148799,-204.81327310200643,170.89437109814688,-45.56889873528653,201.3996193288319,7.267741097760518C231.9048675595169,60.104380930807565,339.7198602376199,6.533286230181754,393.62735657667145,-20.252261120131156L447.534852915723,-47.03780847044406"></path><path class="link" d="M264.50336353161293,-364.0576474687264L240.6936274944359,-286.3525402644973C216.8838914572589,-208.6474330602682,169.2644193829049,-53.23721865181005,196.50976418310594,-15.737218651810048C223.75510898330694,21.762781348189957,325.865270658063,-58.64743306026819,376.9203514954411,-98.85254026449728L427.9754323328191,-139.05764746872634"></path><path class="link" d="M264.50336353161293,-364.0576474687264L238.74445539301942,-277.1824065076178C212.98554725442594,-190.30716554650937,161.46773097723894,-16.556683624292344,173.11969896610807,94.30438643074307C184.77166695497712,205.16545648577846,259.5934192099023,253.13711467363225,297.0042953373649,277.1229437675592L334.4151714648275,301.10877286148605"></path><path class="link" d="M264.50336353161293,-364.0576474687264L237.2879593944108,-275.87097161996707C210.07255525720868,-187.68429577120767,155.6417469828044,-11.310944073688992,155.6417469828044,110.04160508255313C155.6417469828044,231.39415423879527,210.07255525720868,297.7259008537608,237.2879593944108,330.8917741612436L264.50336353161293,364.0576474687263"></path><path class="link" d="M334.41517146482744,-301.1087728614862L300.40996343739,-232.58370987081298C266.40475540995254,-164.05864688013978,198.3943393550776,-27.008520898793318,213.98771616640954,-4.736951571734001e-15C229.5810929777415,27.008520898793307,328.7782626552803,-56.02456328496652,378.3768474940496,-97.54110537684643L427.9754323328191,-139.05764746872634"></path><path class="link" d="M334.41517146482744,-301.1087728614862L295.3069646259585,-221.1221868831485C256.1987577870896,-141.13560090481073,177.98234410935186,18.83757105186474,152.7517304292323,137.5382758519742C127.52111674911271,256.2389806520836,155.27630306661138,333.66721829562704,169.15389622536068,372.38133711739874L183.03148938411002,411.09545593917045"></path><path class="link" d="M389.71143170299734,-225.00000000000006L347.6421857241601,-167.5741330516269C305.57293974532286,-110.14826610325373,221.43444778764842,4.703467793492583,227.81178122595202,19.027193215371536C234.18911466425564,33.35091863725049,331.0822734985374,-52.85336441573793,379.52885291567827,-95.95550594223214L427.9754323328191,-139.05764746872634"></path><path class="link" d="M389.71143170299734,-225.00000000000006L341.8109389134243,-171.60591560780145C293.9104461238514,-118.2118312156029,198.10946054470537,-11.42366243120575,139.3273713199351,12.21870381191483C80.54528209516481,35.86107005503541,58.78208922477025,-23.642366243120577,37.01889635437566,-83.14580254127657C15.255703483981073,-142.64923883943257,-6.507489386413532,-202.15267513758855,-28.27068225680814,-261.65611143574455C-50.03387512720274,-321.1595477339005,-71.79706799759734,-380.66298403205656,-82.67866443279463,-410.41470218113454L-93.56026086799194,-440.16642033021253"></path><path class="link" d="M427.9754323328191,-139.05764746872634L380.7335075242766,-90.2880515990979C333.4915827157343,-41.51845572946943,239.00773309864948,56.02073600978748,242.26763652913345,87.03664533298253C245.52753995961743,118.0525546561776,346.5311964376702,82.54518156331079,397.03302467669664,64.79149501687739L447.53485291572304,47.037808470444"></path><path class="link" d="M447.534852915723,-47.037808470444055L396.23585799690863,-7.980226797866014C344.9368630780943,31.077354874712025,242.33887324046563,109.19251821986809,232.70163637167806,154.5321529649421C223.0643995028904,199.8717877100161,306.3879156029439,212.43589385500798,348.0496736529706,218.71794692750396L389.7114317029974,224.9999999999999"></path><path class="link" d="M447.534852915723,-47.037808470444055L397.0330246766966,-9.770692475600882C346.5311964376702,27.49642351924229,245.52753995961743,102.03065550892863,242.26763652913345,133.04656483212372C239.00773309864948,164.06247415531877,333.4915827157343,151.56006081202256,380.7335075242767,145.30885414037445L427.97543233281914,139.05764746872632"></path><path class="link" d="M447.53485291572304,47.037808470444L388.11686983642954,77.06352933914253C328.6988867571361,107.08925020784106,209.86292059854918,167.14069194523813,135.27377844592868,234.30105720016414C60.684636293308195,301.46142245509014,30.342318146654126,375.73071122754504,15.171159073327091,412.8653556137726L5.554268418642517e-14,450"></path><path class="link" d="M447.53485291572304,47.037808470444L397.03302467669664,64.79149501687739C346.5311964376702,82.5451815633108,245.52753995961743,118.05255465617762,242.26763652913345,87.03664533298256C239.00773309864948,56.0207360097875,333.4915827157343,-41.51845572946942,380.7335075242766,-90.2880515990979L427.9754323328191,-139.05764746872634"></path><path class="link" d="M447.53485291572304,47.037808470444L397.44051260550714,66.70857499600828C347.3461722952913,86.37934152157256,247.15749167485944,125.72087457270113,247.15749167485944,110.04160508255313C247.15749167485941,94.3623355924051,347.3461722952912,23.66226356098053,397.44051260550714,-11.687772454731762L447.534852915723,-47.037808470444055"></path><path class="link" d="M447.53485291572304,47.037808470444L381.14988709757904,61.41542990452823C314.764921279435,75.79305133861247,181.9949896431469,104.54829420678095,51.66998557972187,46.52386398479256C-78.65501848370319,-11.500566237195832,-206.53509497426523,-156.30466954934107,-270.47513321954625,-228.70672120541371L-334.41517146482727,-301.10877286148633"></path><path class="link" d="M427.97543233281914,139.05764746872632L364.4428820163486,140.0157090488944C300.91033169987804,140.97377062906244,173.84523106693698,142.88989378939857,46.78013043399588,69.52882373436312C-80.2849701989452,-3.8322463206723114,-207.35007083188626,-152.47050959107932,-270.8826211483568,-226.78964122628284L-334.4151714648273,-301.10877286148633"></path><path class="link" d="M93.56026086799169,440.16642033021253L77.6445843018466,408.17338530269484C61.72890773570151,376.1803502751771,29.89755460341134,312.1942802201417,-50.6477274917535,276.3332101651063C-131.19300958691835,240.4721401100709,-260.45222064495783,232.73607005503558,-325.0818261739776,228.8680350275179L-389.71143170299734,225.0000000000002"></path><path class="link" d="M5.510910596163089e-14,450L14.763671144516591,408.98836694837314C29.52734228903313,367.9767338967463,59.0546845780662,285.9534677934926,130.3839233002027,187.77719321537154C201.71316202233922,89.60091863725047,314.84429717757916,-24.72836441573793,371.4098647551991,-81.89300594223214L427.9754323328191,-139.05764746872634"></path><path class="link" d="M5.510910596163089e-14,450L3.898344202833036,421.0555350275177C7.796688405666017,392.11107005503544,15.593376811331979,334.2221401100708,4.026408835973901e-14,332.58321016510627C-15.593376811331899,330.9442802201417,-54.57681883966173,385.5553502751771,-74.06853985382666,412.86088530269484L-93.56026086799157,440.16642033021253"></path><path class="link" d="M5.510910596163089e-14,450L-2.271471856229584,416.5729012706383C-4.542943712459223,383.1458025412766,-9.085887424918502,316.29160508255313,-74.0377927087514,278.7916050825532C-138.9896979925843,241.29160508255322,-264.35056484779085,233.1458025412767,-327.0309982753941,229.07290127063845L-389.71143170299734,225.0000000000002"></path><path class="link" d="M5.510910596163089e-14,450L2.0343602754139036,420.44988993603766C4.068720550827752,390.8997798720754,8.13744110165545,331.79955974415066,-22.367807129029547,325.31546906734576C-52.87305535971455,318.8313783905408,-117.95227237191223,364.9634171648557,-150.49188087801107,388.02943655201307L-183.03148938410993,411.0954559391705"></path><path class="link" d="M-93.56026086799157,440.16642033021253L-74.06853985382666,412.86088530269484C-54.57681883966173,385.5553502751771,-15.593376811331899,330.9442802201417,4.004729924734187e-14,332.58321016510627C15.593376811331979,334.2221401100708,7.796688405666017,392.11107005503544,3.898344202833037,421.0555350275177L5.554268418642517e-14,450"></path><path class="link" d="M-183.03148938410993,411.0954559391705L-157.45886361686166,384.9275359866274C-131.88623784961337,358.7596160340843,-80.74098631511681,306.42377612899804,-105.97159999523637,288.09266228271736C-131.20221367535595,269.76154843643667,-232.80869257009167,285.43516064896147,-283.6119320174595,293.2719667552239L-334.4151714648273,301.10877286148633"></path><path class="link" d="M-183.03148938410993,411.0954559391705L-156.00236761825303,386.2389708742782C-128.9732458523961,361.38248580938597,-74.91500232068229,311.6695156796014,-88.49364801193279,303.82988093452735C-102.07229370318328,295.99024618945333,-183.28782861739808,330.0239468290899,-223.89559607450545,347.0407971489081L-264.5033635316129,364.0576474687264"></path><path class="link" d="M-264.5033635316129,364.0576474687264L-227.04942278452043,344.74940791812304C-189.59548203742796,325.44116836751965,-114.68760054324305,286.824689266313,-126.33956853211214,276.3332101651063C-137.9915365209812,265.84173106389966,-236.20335399290425,283.475251962693,-285.3092627288658,292.29201241208966L-334.4151714648273,301.10877286148633"></path><path class="link" d="M-389.71143170299734,225.0000000000002L-335.94715311566114,222.59493559290357C-282.18287452832493,220.18987118580696,-174.65431735365254,215.37974237161373,-181.03165079195617,201.05601694973475C-187.4089842302598,186.73229152785584,-307.6922082815394,162.8949694982911,-367.8338203071792,150.97630848350875L-427.9754323328191,139.0576474687264"></path><path class="link" d="M-389.71143170299734,225.0000000000002L-335.94715311566114,216.80086694837328C-282.18287452832493,208.60173389674642,-174.65431735365257,192.20346779349268,-181.0316507919562,131.52719321537163C-187.40898423025985,70.85091863725053,-307.6922082815395,-34.103364415737865,-367.83382030717934,-86.58050594223205L-427.97543233281914,-139.05764746872626"></path><path class="link" d="M-427.9754323328191,139.0576474687264L-369.03847491577767,147.26876282664298C-310.1015174987363,155.47987818455962,-192.22760266465357,171.90210890039282,-195.4875060951376,156.56546906734582C-198.74740952562158,141.22882923429884,-323.14113122067226,94.1333188523716,-385.3379920681976,70.58556366140802L-447.534852915723,47.0378084704444"></path><path class="link" d="M-447.534852915723,47.0378084704444L-385.7454799970081,66.70857499600862C-323.9561070782933,86.37934152157284,-200.3773612408636,125.72087457270129,-200.37736124086356,110.04160508255318C-200.3773612408636,94.36233559240507,-323.9561070782933,23.66226356098042,-385.7454799970081,-11.687772454731906L-447.534852915723,-47.03780847044423"></path></g><g><text class="node module-1" dy="0.31em" transform="rotate(-78)translate(460,0)" style="text-anchor: start;">compilationUnit</text><text class="node module-1" dy="0.31em" transform="rotate(-66)translate(460,0)" style="text-anchor: start;">stmt</text><text class="node module-1" dy="0.31em" transform="rotate(-54)translate(460,0)" style="text-anchor: start;">assignStmt</text><text class="node module-1" dy="0.31em" transform="rotate(-42)translate(460,0)" style="text-anchor: start;">printStmt</text><text class="node module-1" dy="0.31em" transform="rotate(-30)translate(460,0)" style="text-anchor: start;">json</text><text class="node module-1" dy="0.31em" transform="rotate(-18)translate(460,0)" style="text-anchor: start;">jsonObject</text><text class="node module-1" dy="0.31em" transform="rotate(-6)translate(460,0)" style="text-anchor: start;">entityObject</text><text class="node module-1" dy="0.31em" transform="rotate(6)translate(460,0)" style="text-anchor: start;">keyValuePair</text><text class="node module-1" dy="0.31em" transform="rotate(18)translate(460,0)" style="text-anchor: start;">nameValuePair</text><text class="node module-1" dy="0.31em" transform="rotate(30)translate(460,0)" style="text-anchor: start;">primitiveEntity</text><text class="node module-1" dy="0.31em" transform="rotate(42)translate(460,0)" style="text-anchor: start;">LET</text><text class="node module-1" dy="0.31em" transform="rotate(54)translate(460,0)" style="text-anchor: start;">EQ</text><text class="node module-1" dy="0.31em" transform="rotate(66)translate(460,0)" style="text-anchor: start;">PRINT</text><text class="node module-1" dy="0.31em" transform="rotate(78)translate(460,0)" style="text-anchor: start;">string</text><text class="node module-1" dy="0.31em" transform="rotate(90)translate(460,0)rotate(180)" style="text-anchor: end;">value</text><text class="node module-1" dy="0.31em" transform="rotate(102)translate(460,0)rotate(180)" style="text-anchor: end;">arr</text><text class="node module-1" dy="0.31em" transform="rotate(114)translate(460,0)rotate(180)" style="text-anchor: end;">NUMBER</text><text class="node module-1" dy="0.31em" transform="rotate(126)translate(460,0)rotate(180)" style="text-anchor: end;">EXP</text><text class="node module-1" dy="0.31em" transform="rotate(138)translate(460,0)rotate(180)" style="text-anchor: end;">INT</text><text class="node module-1" dy="0.31em" transform="rotate(150)translate(460,0)rotate(180)" style="text-anchor: end;">STRING</text><text class="node module-1" dy="0.31em" transform="rotate(161.99999999999997)translate(460,0)rotate(180)" style="text-anchor: end;">ESC</text><text class="node module-1" dy="0.31em" transform="rotate(174)translate(460,0)rotate(180)" style="text-anchor: end;">UNICODE</text><text class="node module-1" dy="0.31em" transform="rotate(186)translate(460,0)rotate(180)" style="text-anchor: end;">HEX</text><text class="node module-1" dy="0.31em" transform="rotate(198)translate(460,0)rotate(180)" style="text-anchor: end;">SAFECODEPOINT</text><text class="node module-1" dy="0.31em" transform="rotate(210)translate(460,0)rotate(180)" style="text-anchor: end;">bool</text><text class="node module-1" dy="0.31em" transform="rotate(222)translate(460,0)rotate(180)" style="text-anchor: end;">IDENTIFIER</text><text class="node module-1" dy="0.31em" transform="rotate(234)translate(460,0)rotate(180)" style="text-anchor: end;">WS</text><text class="node module-2" dy="0.31em" transform="rotate(258)translate(460,0)rotate(180)" style="text-anchor: end;">EOF</text></g></g></svg>